<?xml version="1.0" standalone="no"?>
<!DOCTYPE svg PUBLIC "-//W3C//DTD SVG 20010904//EN"
 "http://www.w3.org/TR/2001/REC-SVG-20010904/DTD/svg10.dtd">
<svg version="1.0" xmlns="http://www.w3.org/2000/svg"
 width="500.000000pt" height="500.000000pt" viewBox="0 0 500.000000 500.000000"
 preserveAspectRatio="xMidYMid meet">

<g transform="translate(0.000000,500.000000) scale(0.100000,-0.100000)"
fill="#000000" stroke="none">
<path d="M2395 4231 c-27 -9 -349 -159 -714 -332 -607 -287 -669 -318 -716
-364 -28 -27 -62 -72 -76 -100 l-24 -50 0 -880 0 -880 27 -57 c54 -116 44
-111 803 -472 749 -356 762 -361 871 -338 57 12 1325 606 1416 664 59 37 104
92 134 166 l24 57 -1 855 c0 781 -1 859 -17 902 -24 65 -72 130 -123 166 -51
34 -1343 648 -1408 668 -60 19 -136 17 -196 -5z m191 -85 c22 -8 334 -154 694
-326 710 -337 720 -343 757 -440 17 -42 18 -108 18 -880 0 -772 -1 -838 -18
-880 -37 -98 -44 -102 -782 -452 l-680 -323 -75 0 -75 0 -680 323 c-737 350
-745 355 -782 452 -17 42 -18 108 -18 890 l0 845 31 55 c17 30 46 66 65 81 29
23 1196 581 1349 645 63 27 139 31 196 10z"/>
<path d="M1890 2754 c0 -39 39 -51 102 -31 29 9 53 15 54 14 1 -1 -38 -47 -88
-102 -102 -114 -141 -174 -132 -200 6 -15 14 -16 58 -9 65 10 104 10 139 0 33
-10 38 11 9 37 -21 20 -60 21 -115 6 -22 -6 -41 -8 -43 -6 -3 3 44 57 105 120
131 139 140 153 115 177 -17 16 -26 17 -77 7 -41 -7 -67 -7 -92 0 -33 11 -35
10 -35 -13z"/>
<path d="M2174 2641 c-114 -69 -120 -221 -10 -221 45 0 86 22 86 46 0 18 -2
18 -44 -2 -40 -19 -66 -13 -66 16 0 15 10 22 45 31 82 21 119 85 75 129 -25
25 -46 25 -86 1z m52 -55 c-6 -23 -50 -56 -76 -56 -15 0 26 77 47 89 24 13 37
-2 29 -33z"/>
<path d="M2368 2644 c-42 -22 -46 -59 -15 -116 15 -27 27 -55 27 -63 0 -23
-41 -18 -47 5 -7 26 -36 22 -41 -4 -8 -42 66 -61 113 -30 33 21 33 64 0 112
-28 42 -32 70 -10 78 20 8 45 -13 45 -37 0 -22 11 -24 28 -7 19 19 14 45 -10
62 -28 20 -55 20 -90 0z"/>
<path d="M2543 2644 c-9 -24 12 -37 56 -32 l40 3 -75 -73 c-56 -54 -75 -78
-72 -95 3 -20 8 -22 85 -22 46 0 83 3 83 6 0 3 -6 13 -13 24 -11 14 -22 17
-55 12 -23 -3 -42 -2 -42 3 0 4 31 34 70 66 97 80 107 121 27 109 -23 -4 -55
-2 -70 4 -23 9 -29 8 -34 -5z"/>
<path d="M2804 2646 c-76 -33 -122 -158 -75 -205 36 -36 141 -21 141 21 0 22
1 22 -40 2 -24 -12 -38 -14 -49 -7 -28 18 -25 42 6 48 79 18 113 46 113 97 0
16 -9 33 -22 42 -27 19 -34 19 -74 2z m49 -30 c8 -20 -15 -59 -45 -75 -48 -27
-50 13 -3 63 27 29 40 33 48 12z"/>
<path d="M2973 2654 c-8 -4 -10 -16 -7 -33 4 -19 -5 -53 -26 -104 -17 -42 -29
-81 -25 -87 13 -21 37 -9 52 27 20 48 102 153 119 153 19 0 18 -14 -5 -58 -26
-53 -33 -89 -21 -112 14 -26 52 -26 75 0 18 20 17 20 -8 20 -33 0 -33 5 -2 76
30 68 32 100 5 114 -25 13 -55 -1 -91 -44 l-26 -30 5 33 c6 40 -12 58 -45 45z"/>
</g>
</svg>
