<?xml version="1.0" standalone="no"?>
<!DOCTYPE svg PUBLIC "-//W3C//DTD SVG 20010904//EN"
 "http://www.w3.org/TR/2001/REC-SVG-20010904/DTD/svg10.dtd">
<svg version="1.0" xmlns="http://www.w3.org/2000/svg"
 width="250.000000pt" height="250.000000pt" viewBox="0 0 250.000000 250.000000"
 preserveAspectRatio="xMidYMid meet">

<g transform="translate(0.000000,250.000000) scale(0.100000,-0.100000)"
fill="#000000" stroke="none">
<path d="M853 1957 c-338 -160 -390 -191 -413 -246 -7 -18 -10 -164 -8 -473
l3 -446 31 -39 c27 -32 81 -62 380 -205 307 -146 355 -167 400 -167 47 -1 86
15 404 167 305 144 357 172 384 205 l31 39 0 458 0 458 -31 39 c-27 33 -80 61
-384 206 -319 151 -357 167 -404 166 -44 -1 -95 -21 -393 -162z m769 -38 c189
-89 353 -171 366 -182 41 -38 43 -71 40 -509 -3 -405 -4 -417 -24 -445 -29
-38 -702 -362 -754 -362 -52 0 -725 324 -754 362 -20 28 -21 40 -24 445 -3
434 0 472 39 508 35 32 701 343 736 343 21 1 148 -54 375 -160z"/>
<path d="M950 1371 c0 -9 10 -12 35 -9 19 2 35 3 35 2 0 -2 -22 -29 -50 -60
-68 -77 -67 -89 2 -89 34 0 48 4 48 14 0 10 -10 12 -40 8 -47 -6 -47 -4 28 75
24 25 42 52 40 59 -6 19 -98 19 -98 0z"/>
<path d="M1066 1300 c-28 -34 -33 -59 -14 -78 17 -17 53 -15 68 3 11 13 8 14
-19 9 -41 -8 -40 8 2 27 24 10 32 20 32 39 0 38 -36 38 -69 0z m54 2 c0 -13
-23 -32 -37 -32 -11 0 -11 5 -3 20 10 19 40 28 40 12z"/>
<path d="M1183 1323 c-16 -6 -17 -34 -1 -68 6 -14 8 -28 3 -33 -4 -4 -10 -1
-12 6 -6 17 -23 15 -23 -3 0 -20 44 -20 60 0 10 12 9 20 -4 40 -9 13 -16 29
-16 35 0 14 27 13 33 -2 2 -7 8 -10 12 -6 4 4 5 14 2 23 -6 15 -30 18 -54 8z"/>
<path d="M1270 1318 c0 -8 15 -12 40 -8 8 1 -5 -17 -29 -40 -23 -23 -40 -45
-36 -48 10 -10 85 -10 85 0 0 4 -11 8 -25 8 -34 0 -31 10 11 43 19 16 34 33
32 39 -5 13 -78 19 -78 6z"/>
<path d="M1376 1300 c-28 -34 -33 -59 -14 -78 17 -17 53 -15 68 3 11 13 8 14
-19 9 -41 -8 -40 8 2 27 24 10 32 20 32 39 0 38 -36 38 -69 0z m54 2 c0 -13
-23 -32 -37 -32 -11 0 -11 5 -3 20 10 19 40 28 40 12z"/>
<path d="M1482 1313 c1 -10 -4 -35 -11 -56 -7 -21 -10 -41 -6 -45 4 -4 10 -2
12 5 10 27 67 97 70 86 3 -7 0 -21 -6 -32 -18 -33 -14 -61 9 -61 21 0 28 16 9
22 -8 3 -6 14 5 37 27 52 4 81 -36 44 -17 -15 -18 -15 -18 0 0 10 -6 17 -14
17 -8 0 -14 -8 -14 -17z"/>
<path d="M1354 1109 c-3 -6 -2 -15 3 -20 5 -5 9 -1 9 11 0 23 -2 24 -12 9z"/>
</g>
</svg>
